<svg xmlns="http://www.w3.org/2000/svg" viewBox="0 0 367.14 139.87"><defs><style>.cls-1{fill:#231f20;}</style></defs><title>자산 1</title><g id="레이어_2" data-name="레이어 2"><g id="Layer_1" data-name="Layer 1"><path class="cls-1" d="M9.79,94.27A33.44,33.44,0,0,1,9.79,47a33.1,33.1,0,0,1,23.64-9.65,22.89,22.89,0,0,1,15.8,6.3l.7.56V0H66.86V102.66H49.93v-5l-.7.71c-5,4.89-10.77,5.59-15.8,5.59A33.59,33.59,0,0,1,9.79,94.27Zm7.13-23.64c0,9.23,7.56,16.93,16.51,16.93s16.5-7.7,16.5-16.93-7.55-16.92-16.5-16.92S16.92,61.54,16.92,70.63Z"/><path class="cls-1" d="M201.82,139.87l15.25-37.07-25.6-64.2h18.74l15.95,39.87L242.38,38.6H261L220.14,139.87Z"/><path class="cls-1" d="M317.21,102.66,295,74.27l-5.73,5.87v22.52H271.05V0h18.19V55.53L306.86,38.6h24.75L307.56,61.54,339,102.66Z"/><path class="cls-1" d="M345.18,93.15a10.44,10.44,0,0,1,3.22-7.69,10.88,10.88,0,1,1-3.22,7.69Z"/><path class="cls-1" d="M179.06,48.19c-.05.06-.13.1-.23.2l-.28-.28a33.42,33.42,0,0,0-10.07-7,29.83,29.83,0,0,0-24,0,33.54,33.54,0,0,0-10.07,7l-.28.28h0l-.27-.28a33.54,33.54,0,0,0-10.07-7,29.83,29.83,0,0,0-24,0,33.42,33.42,0,0,0-10.07,7l-.28.28c-.1-.1-.18-.14-.23-.2a31.45,31.45,0,0,0-8.5,21.46v34.27H98.1V69.65a14,14,0,0,1,12.68-13.93c.32,0,.64,0,1,0h.06c.32,0,.65,0,1,0A14,14,0,0,1,125.42,68.9c0,.25,0,.5,0,.75v34.27h17.46V69.65c0-.25,0-.5,0-.75a14,14,0,0,1,12.64-13.18c.32,0,.65,0,1,0h.06c.33,0,.65,0,1,0a14,14,0,0,1,12.68,13.93v34.27h17.4V69.65A31.45,31.45,0,0,0,179.06,48.19Z"/></g></g></svg>